<?xml version="1.0" standalone="no"?>
<!DOCTYPE svg PUBLIC "-//W3C//DTD SVG 20010904//EN"
 "http://www.w3.org/TR/2001/REC-SVG-20010904/DTD/svg10.dtd">
<svg version="1.0" xmlns="http://www.w3.org/2000/svg"
 width="600.000000pt" height="600.000000pt" viewBox="0 0 600.000000 600.000000"
 preserveAspectRatio="xMidYMid meet">
<metadata>
Created by potrace 1.14, written by Peter Selinger 2001-2017
</metadata>
<g transform="translate(0.000000,600.000000) scale(0.100000,-0.100000)"
fill="#000000" stroke="none">
<path d="M1914 4758 c-3 -11 -15 -18 -30 -18 l-24 0 0 -1740 0 -1740 24 0 c15
0 27 -7 30 -17 5 -17 29 -17 478 -1 260 9 764 20 1120 24 644 7 647 7 652 28
7 27 7 3385 0 3412 -5 21 -8 21 -652 28 -356 4 -860 15 -1120 24 -449 16 -473
16 -478 0z"/>
</g>
</svg>
